<svg width="61" height="61" viewBox="0 0 61 61" fill="none" xmlns="http://www.w3.org/2000/svg">
<path d="M38.7459 25.5664C38.7459 25.5664 38.4786 26.937 39.1497 30.2583C39.8265 33.5853 40.0312 38.6754 40.0312 38.6754C39.9686 44.3739 39.6217 49.9246 39.2179 53.5076C38.8198 57.0848 38.9393 57.1645 38.5753 59.2119L38.5184 59.4166C36.4028 59.991 34.1961 60.3322 31.9213 60.4232V60.1957C31.9838 56.5844 31.8928 52.791 31.654 48.81C31.4492 46.3246 31.2558 43.9531 31.0795 41.7123C30.7326 41.0754 30.454 41.0128 30.2663 41.7464L29.6236 48.9749C29.3393 52.6545 29.2312 56.2602 29.3222 59.7863L29.1231 60.4119C26.8881 60.2981 24.7212 59.9398 22.6397 59.3597C22.7762 58.3417 22.799 56.9654 22.5942 55.2934C22.3042 52.8877 20.9449 44.3569 21.3829 39.0791C21.235 35.8659 21.4625 32.4649 22.0881 28.8763C22.1734 25.5436 21.8492 22.1995 21.2862 18.8555C21.2862 18.8384 21.2862 18.827 21.2862 18.81C21.2577 16.6659 21.5364 15.1303 21.7241 13.7711C21.9118 12.4175 22.1904 6.26967 21.0587 4.67157C21.0587 4.66019 21.053 4.6545 21.0473 4.64882C25.1592 3.97773 27.3942 2.68104 27.3658 0.633651C28.4577 0.514219 29.5667 0.45166 30.6871 0.45166C31.7222 0.45166 32.7459 0.502845 33.7525 0.605215C34.0881 2.82322 36.1923 4.19953 40.2018 4.67725H40.2189C40.3497 4.68863 40.4805 4.70569 40.6113 4.71706C39.4739 6.34929 39.144 9.33507 39.3942 13.2649C39.3885 15.2156 39.8151 17.3142 40.0369 18.5711C40.0539 18.6507 40.0596 18.7417 40.0596 18.8384C40.0767 20.3171 38.7857 23.9057 38.7516 25.5664H38.7459Z" fill="#5697BF"/>
<path d="M21.0416 4.64882C21.0416 4.64882 21.053 4.66019 21.053 4.67157C20.6094 4.63176 20.035 4.63176 19.1534 4.68294C16.3724 4.85924 15.3259 10.0801 16.7876 14.2147C16.2871 15.5 16.0369 17.4621 15.9402 19.8564C15.235 21.4488 14.4842 22.2109 14.0179 23.7408C13.5459 25.2706 11.7942 32.482 10.2985 36.3095C8.31931 37.4185 6.52785 38.7834 4.86149 40.3303C4.88424 41.0754 5.52121 41.1152 6.55059 40.7C6.55059 40.7 8.60937 38.9882 8.43875 39.5171C8.27382 40.046 7.02264 43.9474 7.02264 43.9474C6.27762 45.6991 7.19324 45.972 7.93258 44.2829L9.11553 42.0194L8.34206 45.4318C8.00083 46.7455 8.94491 46.8479 9.28614 45.6991L10.435 42.1844L9.96292 45.4318C9.68993 46.7796 10.5032 46.7455 10.6397 45.5L11.6861 42.0877L11.4473 44.4194C11.2425 46.0062 11.8511 46.0744 12.3288 44.3171L13.6425 37.2536C16.7193 32.7322 18.7838 27.9152 19.9269 22.8251L20.8767 19.0431L21.2861 18.8555C21.8492 22.1995 22.1733 25.5436 22.088 28.8763C21.4624 32.4649 21.235 35.8659 21.3828 39.0791C20.9449 44.3569 22.3041 52.8877 22.5942 55.2934C22.7989 56.9654 22.7762 58.3417 22.6397 59.3597C9.9743 55.845 0.681396 44.2374 0.681396 30.4517C0.681396 15.0052 12.3572 2.28863 27.3601 0.633652C27.3885 2.68105 25.1534 3.97773 21.0416 4.64882Z" fill="#F4F5F8"/>
<path d="M21.7184 13.7711C21.5307 15.1303 21.252 16.6659 21.2805 18.8099C21.2805 18.827 21.2805 18.8384 21.2805 18.8554L20.871 19.0431L19.9212 22.8251C18.7781 27.9152 16.7136 32.7322 13.6369 37.2536L12.3231 44.3171C11.8454 46.0744 11.2369 46.0062 11.4416 44.4194L11.6805 42.0877L10.634 45.5C10.4975 46.7455 9.68425 46.7796 9.95724 45.4317L10.4293 42.1844L9.28048 45.699C8.93925 46.8479 7.99517 46.7455 8.3364 45.4317L9.10985 42.0194L7.92692 44.2829C7.18758 45.972 6.27194 45.699 7.01697 43.9474C7.01697 43.9474 8.26814 40.046 8.43307 39.5171C8.60369 38.9881 6.54492 40.7 6.54492 40.7C5.51553 41.1152 4.87858 41.0754 4.85583 40.3303C6.52219 38.7834 8.31365 37.4185 10.2928 36.3095C11.7885 32.482 13.5402 25.2706 14.0122 23.7408C14.4786 22.2109 15.2293 21.4488 15.9345 19.8564C16.0312 17.4621 16.2814 15.5 16.7819 14.2147C15.3203 10.0801 16.3667 4.85924 19.1478 4.68293C20.0293 4.63175 20.6037 4.63175 21.0473 4.67156C22.179 6.26966 21.9004 12.4175 21.7127 13.7711H21.7184Z" fill="#FFD05C" stroke="#231F20" stroke-width="0.5" stroke-miterlimit="10"/>
<path d="M31.9212 60.1957V60.4232C31.5117 60.446 31.0966 60.4517 30.6814 60.4517C30.1582 60.4517 29.6406 60.4403 29.1231 60.4119L29.3222 59.7863C29.2312 56.2602 29.3392 52.6545 29.6236 48.9749L30.2662 41.7465C30.4539 41.0128 30.7326 41.0754 31.0795 41.7123C31.2558 43.9531 31.4492 46.3247 31.6539 48.81C31.8928 52.791 31.9838 56.5844 31.9212 60.1957Z" fill="#F4F5F8"/>
<path d="M60.6814 30.4517C60.6814 44.3114 51.2861 55.9758 38.5183 59.4166L38.5752 59.2119C38.9392 57.1645 38.8197 57.0848 39.2179 53.5076C39.6216 49.9246 39.9686 44.3739 40.0311 38.6754C40.0311 38.6754 39.8264 33.5853 39.1496 30.2583C38.4785 26.937 38.7458 25.5664 38.7458 25.5664C38.7799 23.9057 40.0709 20.3171 40.0539 18.8384L40.4975 19.0431L41.4245 22.8251C42.5562 27.9152 44.5923 32.7322 47.6178 37.2536L48.9202 44.3171C49.3866 46.0744 49.9837 46.0062 49.7847 44.4194L49.5515 42.0877L50.5809 45.5C50.7174 46.7455 51.5136 46.7796 51.2463 45.4318L50.7799 42.1844L51.9117 45.6991C52.2472 46.8479 53.1799 46.7455 52.8444 45.4318L52.0823 42.0194L53.2482 44.2829C53.9762 45.972 54.8747 45.6991 54.1468 43.9474C54.1468 43.9474 52.9126 40.046 52.7477 39.5171C52.5771 38.9882 54.6131 40.7 54.6131 40.7C55.6254 41.1152 56.251 41.0754 56.2738 40.3303C54.6359 38.7834 52.8671 37.4185 50.9164 36.3095C49.4434 32.482 47.7145 25.2706 47.2539 23.7408C46.7932 22.2109 46.0539 21.4488 45.3543 19.8564C45.2577 17.4621 45.0131 15.5 44.524 14.2147C45.9629 10.0801 44.9335 4.85924 42.1923 4.68294C41.2539 4.62607 40.6681 4.63175 40.2131 4.68294H40.1961C36.1866 4.20521 34.0823 2.82891 33.7468 0.610901C48.8804 2.14645 60.6814 14.9256 60.6814 30.4573V30.4517Z" fill="#F4F5F8"/>
<path d="M56.2738 40.3303C56.2511 41.0754 55.6255 41.1152 54.6132 40.7C54.6132 40.7 52.5771 38.9882 52.7478 39.5171C52.9127 40.046 54.1468 43.9474 54.1468 43.9474C54.8748 45.699 53.9762 45.972 53.2482 44.2829L52.0823 42.0194L52.8444 45.4317C53.18 46.7455 52.2473 46.8479 51.9117 45.699L50.78 42.1844L51.2463 45.4317C51.5136 46.7796 50.7174 46.7455 50.5809 45.5L49.5515 42.0877L49.7847 44.4194C49.9838 46.0062 49.3866 46.0744 48.9203 44.3171L47.6179 37.2536C44.5923 32.7322 42.5563 27.9152 41.4245 22.8251L40.4975 19.0431L40.0539 18.8384C40.0539 18.7417 40.0539 18.6507 40.0312 18.5711C39.8094 17.3142 39.3828 15.2156 39.3885 13.2649C39.1383 9.33507 39.4681 6.34929 40.6056 4.71706C40.4748 4.70568 40.344 4.68862 40.2132 4.67725C40.6681 4.63175 41.2539 4.62606 42.1923 4.67725C44.9335 4.85355 45.9629 10.0744 44.5241 14.209C45.0132 15.4943 45.2577 17.4564 45.3544 19.8507C46.0539 21.4431 46.7933 22.2052 47.2539 23.7351C47.7146 25.2649 49.4435 32.4763 50.9165 36.3038C52.8672 37.4128 54.6359 38.7777 56.2738 40.3246V40.3303Z" fill="#FFD05C" stroke="#231F20" stroke-width="0.5" stroke-miterlimit="10"/>
</svg>
