<svg width="61" height="61" viewBox="0 0 61 61" fill="none" xmlns="http://www.w3.org/2000/svg">
<path d="M36.0926 50.1496C35.8384 51.1607 35.765 52.0532 36.0926 53.07C36.3298 53.5049 36.5558 54.0302 36.7366 54.629C36.793 54.8098 36.8382 54.9792 36.8721 55.1487C36.8778 55.3068 36.8947 55.5441 36.9625 55.8209C37.0868 56.3067 37.2619 56.5044 37.1659 56.7585C37.1094 56.8998 36.9682 57.0636 36.7761 57.0692C36.6292 57.0805 36.4767 56.9619 36.3242 56.7585L36.0926 57.2952C35.8949 57.7188 35.6915 57.5889 35.4882 57.2952L35.251 57.5324C35.0307 57.7866 34.8612 57.7245 34.7143 57.5324C34.5901 57.8261 34.4037 57.8544 34.1777 57.6962L33.5564 56.7529C33.6185 56.8602 33.7767 57.1822 33.6693 57.5494C33.6185 57.7075 33.5394 57.8261 33.4717 57.8996C33.3982 57.9278 33.0084 58.0521 32.6695 57.8544C32.4153 57.7019 32.3137 57.442 32.2459 57.25C32.1385 56.9676 32.1329 56.719 32.1329 56.623C32.1272 56.1033 32.2402 54.742 32.4662 52.9344L32.3306 45.7832L31.8618 40.7164L32.4662 32.7631L31.5285 27.1257L30.9241 18.5398C30.732 16.3594 30.5456 14.1733 30.3536 11.993C30.1615 14.1733 29.9751 16.3424 29.7831 18.5172L29.1787 27.1088L28.241 32.7461L28.8454 40.6994L28.3766 45.7663L28.241 52.9118C28.4669 54.7194 28.5799 56.0807 28.5742 56.6004C28.5742 56.6964 28.5686 56.945 28.4613 57.2274C28.3935 57.4194 28.2918 57.6793 28.0376 57.8318C27.6987 58.0351 27.3089 57.9052 27.2355 57.877C27.1677 57.8035 27.0887 57.6849 27.0378 57.5268C26.9305 57.1596 27.0887 56.8433 27.1508 56.7303L26.5294 57.6793C26.3035 57.8318 26.1171 57.8092 25.9928 57.5098C25.8459 57.7019 25.6765 57.764 25.4562 57.5098L25.2189 57.2726C25.0156 57.572 24.8122 57.6962 24.6145 57.2726L24.3829 56.736C24.2304 56.9393 24.0779 57.0579 23.9311 57.0523C23.739 57.041 23.5978 56.8772 23.5413 56.736C23.4453 56.4818 23.626 56.2841 23.7446 55.7983C23.8124 55.5215 23.8294 55.2843 23.835 55.1261C23.8746 54.9566 23.9141 54.7872 23.9706 54.6121C24.1514 54.0077 24.3773 53.488 24.6145 53.0474C24.9422 52.0306 24.8687 51.1381 24.6145 50.127C24.366 49.1159 24.4903 46.5232 24.0102 44.4219C23.1459 41.8969 22.8578 38.7111 22.903 35.1242C23.4001 31.6277 23.3944 28.0464 22.903 24.3861C21.8806 20.6354 21.5191 16.3594 21.762 11.6032C21.5982 8.58118 21.7168 5.83593 22.2647 3.51434L22.5132 2.78001C24.671 2.70658 25.0551 3.65555 25.2528 5.59869C25.4562 7.54183 28.2466 10.6034 30.4553 10.8971C32.0425 11.2191 35.121 8.9201 36.0926 5.25977C36.0192 2.78001 37.5104 2.62185 38.1487 2.67269L38.4425 3.53693C38.9904 5.85853 39.109 8.60377 38.9452 11.6258C39.1881 16.382 38.8266 20.658 37.8042 24.4087C37.3127 28.069 37.3071 31.6503 37.8042 35.1468C37.8493 38.728 37.5613 41.9195 36.697 44.4445C36.2169 46.5458 36.3411 49.1385 36.0926 50.1496Z" fill="#FFD05C" stroke="#231F20" stroke-width="0.5" stroke-miterlimit="10"/>
<path d="M38.4424 1.23793V2.71223C38.4424 2.71223 38.3295 2.68398 38.1487 2.67269C37.5104 2.62185 36.0192 2.78001 36.0926 5.25977C35.121 8.9201 32.0425 11.2191 30.4552 10.8971C28.2466 10.6034 25.4562 7.54183 25.2528 5.59869C25.0551 3.65555 24.671 2.70658 22.5132 2.78001H22.5019C22.2816 2.33377 22.2364 1.81409 22.2816 1.25487C24.8631 0.526198 27.5801 0.14209 30.3875 0.14209C33.1948 0.14209 35.878 0.526198 38.4424 1.23793Z" fill="#F37B7B"/>
<path d="M60.3875 30.1421C60.3875 46.7096 46.955 60.1421 30.3875 60.1421C13.8199 60.1421 0.387451 46.7096 0.387451 30.1421C0.387451 16.382 9.65122 4.78528 22.2816 1.25488C22.2364 1.81409 22.2816 2.33377 22.5019 2.78001H22.5132L22.2647 3.51434C21.7168 5.83593 21.5981 8.58118 21.7619 11.6032C21.5191 16.3594 21.8806 20.6354 22.903 24.3861C23.3944 28.0464 23.4001 31.6277 22.903 35.1242C22.8578 38.7111 23.1459 41.8969 24.0101 44.4219C24.4903 46.5232 24.366 49.1159 24.6145 50.127C24.8687 51.1381 24.9421 52.0306 24.6145 53.0474C24.3773 53.488 24.1513 54.0077 23.9706 54.6121C23.9141 54.7872 23.8745 54.9566 23.835 55.1261C23.8293 55.2842 23.8124 55.5215 23.7446 55.7983C23.626 56.2841 23.4453 56.4818 23.5413 56.736C23.5978 56.8772 23.739 57.041 23.931 57.0523C24.0779 57.0579 24.2304 56.9393 24.3829 56.736L24.6145 57.2726C24.8122 57.6962 25.0156 57.5719 25.2189 57.2726L25.4562 57.5098C25.6765 57.764 25.8459 57.7019 25.9928 57.5098C26.1171 57.8092 26.3035 57.8318 26.5294 57.6793L27.1508 56.7303C27.0886 56.8433 26.9305 57.1596 27.0378 57.5268C27.0886 57.6849 27.1677 57.8035 27.2355 57.877C27.3089 57.9052 27.6987 58.0351 28.0376 57.8318C28.2918 57.6793 28.3935 57.4194 28.4612 57.2274C28.5686 56.945 28.5742 56.6964 28.5742 56.6004C28.5799 56.0807 28.4669 54.7194 28.241 52.9118L28.3765 45.7663L28.8454 40.6994L28.241 32.7461L29.1786 27.1088L29.783 18.5172C29.9751 16.3424 30.1615 14.1733 30.3536 11.993C30.5456 14.1733 30.732 16.3594 30.9241 18.5398L31.5285 27.1257L32.4662 32.7631L31.8617 40.7164L32.3306 45.7832L32.4662 52.9344C32.2402 54.742 32.1272 56.1033 32.1329 56.623C32.1329 56.719 32.1385 56.9675 32.2458 57.25C32.3136 57.442 32.4153 57.7019 32.6695 57.8544C33.0084 58.0521 33.3982 57.9278 33.4716 57.8996C33.5394 57.8261 33.6185 57.7075 33.6693 57.5494C33.7766 57.1822 33.6185 56.8602 33.5563 56.7529L34.1777 57.6962C34.4037 57.8544 34.59 57.8261 34.7143 57.5324C34.8612 57.7245 35.0306 57.7866 35.2509 57.5324L35.4882 57.2952C35.6915 57.5889 35.8949 57.7188 36.0926 57.2952L36.3242 56.7585C36.4767 56.9619 36.6292 57.0805 36.7761 57.0692C36.9681 57.0636 37.1094 56.8998 37.1658 56.7585C37.2619 56.5044 37.0868 56.3067 36.9625 55.8209C36.8947 55.5441 36.8777 55.3068 36.8721 55.1487C36.8382 54.9792 36.793 54.8098 36.7365 54.629C36.5558 54.0302 36.3298 53.5049 36.0926 53.07C35.765 52.0532 35.8384 51.1607 36.0926 50.1496C36.3411 49.1385 36.2169 46.5458 36.697 44.4445C37.5612 41.9195 37.8493 38.728 37.8041 35.1468C37.3071 31.6503 37.3127 28.069 37.8041 24.4087C38.8265 20.658 39.188 16.382 38.9451 11.6258C39.109 8.60377 38.9904 5.85853 38.4424 3.53693L38.1487 2.67269C38.3295 2.68399 38.4424 2.71223 38.4424 2.71223V1.23793C51.1011 4.75704 60.3875 16.365 60.3875 30.1421Z" fill="#FFFBEC"/>
</svg>
