<svg width="60" height="61" viewBox="0 0 60 61" fill="none" xmlns="http://www.w3.org/2000/svg">
<path d="M22.1175 36.757C22.1062 38.2185 22.0493 39.5208 21.9355 40.6638" stroke="#231F20" stroke-width="0.25" stroke-miterlimit="10"/>
<path d="M38.6843 40.442C38.6672 39.1056 38.8037 37.6612 39.0085 36.1713" stroke="#231F20" stroke-width="0.25" stroke-miterlimit="10"/>
<path d="M52.6862 49.9217C47.1867 56.2794 39.0654 60.2941 30 60.2941C20.9346 60.2941 12.9725 56.3533 7.47296 50.1093C11.4881 49.2563 15.526 48.0678 19.5924 46.5324C20.8208 45.9581 21.6 44.0075 21.9355 40.6638C23.6815 42.6086 25.7516 43.8938 28.1971 44.417C29.9886 44.8719 31.763 44.9174 33.5147 44.417C35.636 43.5867 37.4104 42.3243 38.6843 40.442C38.7185 42.9726 39.2815 45.1392 40.9478 46.5779C44.9175 48.119 48.836 49.3075 52.6578 49.8648L52.6862 49.9217Z" fill="#F15F7A"/>
<path d="M60 30.2913C60 37.7977 57.2474 44.6615 52.6863 49.9217L52.6578 49.8648C48.836 49.3075 44.9175 48.119 40.9479 46.5779C39.2815 45.1392 38.7185 42.9726 38.6844 40.442C38.8152 40.2544 38.9346 40.0667 39.054 39.8677C39.6967 38.355 40.1972 36.2453 40.4986 33.2882C41.0218 33.5157 41.5223 33.5441 41.9829 33.2882C42.8417 32.3726 43.4787 31.3263 43.8768 30.1378C44.5763 27.1352 44.6502 25.4861 44.1441 25.088C43.3877 24.9743 42.7962 25.2984 42.3412 25.9922C44.3374 14.2663 40.0322 8.79003 30.5403 8.47158C19.8199 8.73885 16.2995 15.0795 18.1991 25.9922C17.8464 25.3553 17.2436 25.0823 16.4417 25.088C15.7934 26.5211 15.89 28.1872 16.4417 30.0013C16.7829 31.2296 17.4882 32.3044 18.6028 33.1972C19.1033 33.4417 19.5299 33.4531 19.8654 33.1517C19.9621 35.4264 20.4569 37.6612 21.2588 39.8677C21.4749 40.1463 21.7024 40.4079 21.9355 40.6638C21.6 44.0075 20.8209 45.9581 19.5924 46.5324C15.5261 48.0678 11.4882 49.2563 7.47299 50.1093C2.82654 44.8264 0 37.8887 0 30.2913C0 13.7261 13.4332 0.294151 30 0.294151C46.5668 0.294151 60 13.7261 60 30.2913Z" fill="#E5EBF7"/>
<path d="M43.8768 30.1378C43.4787 31.3263 42.8417 32.3726 41.9829 33.2882C41.5223 33.5441 41.0218 33.5156 40.4986 33.2882C40.1971 36.2452 39.6967 38.355 39.054 39.8677C38.9346 40.0667 38.8152 40.2543 38.6843 40.442C37.4104 42.3243 35.636 43.5867 33.5147 44.417C31.763 44.9174 29.9886 44.8719 28.1971 44.417C25.7516 43.8938 23.6815 42.6086 21.9355 40.6638C21.7024 40.4079 21.4749 40.1463 21.2588 39.8677C20.4569 37.6612 19.9621 35.4264 19.8654 33.1517C19.5298 33.4531 19.1033 33.4417 18.6028 33.1972C17.4881 32.3044 16.7829 31.2296 16.4417 30.0013C15.89 28.1872 15.7934 26.521 16.4417 25.088C17.2436 25.0823 17.8464 25.3553 18.199 25.9922C16.2995 15.0795 19.8199 8.73885 30.5403 8.47157C40.0322 8.79003 44.3374 14.2663 42.3412 25.9922C42.7962 25.2984 43.3877 24.9743 44.1441 25.088C44.6502 25.4861 44.5763 27.1352 43.8768 30.1378Z" fill="#FFD05C" stroke="#231F20" stroke-width="0.5" stroke-miterlimit="10"/>
</svg>
