<svg width="61" height="60" viewBox="0 0 61 60" fill="none" xmlns="http://www.w3.org/2000/svg">
<path d="M60.8428 30C60.8428 37.2219 58.2914 43.8482 54.0373 49.0248C53.294 49.9315 52.498 50.796 51.6493 51.6025C48.8871 54.2752 45.6135 56.4101 41.9867 57.8598C38.7394 59.1618 35.2128 59.9104 31.5175 59.9895C31.2908 60 31.0694 60 30.8428 60C30.2471 60 29.6514 59.9842 29.061 59.9473C25.4975 59.7417 22.1027 58.9088 18.9819 57.5646C15.3446 55.9989 12.0816 53.7322 9.36149 50.9383C8.37572 49.9315 7.46903 48.8561 6.63087 47.7174C2.99354 42.7464 0.842773 36.6263 0.842773 30C0.842773 15.8197 10.6794 3.9378 23.9002 0.806537C26.1301 0.279388 28.4548 0 30.8428 0C32.9566 0 35.0231 0.216131 37.0104 0.637849C50.6214 3.47918 60.8428 15.5456 60.8428 30Z" fill="#FEEFED"/>
<path d="M37.0104 0.637849C36.868 1.49183 36.6414 2.28782 36.2882 2.98893C36.0088 3.46336 35.6029 3.74802 35.1179 3.92725C35.0336 4.7865 34.9176 5.6932 34.7647 6.64207H34.7331L26.3198 6.43121H26.3093C26.0404 5.57723 25.9139 4.6758 25.9139 3.71639C25.9139 3.71639 25.7294 3.79547 25.4975 3.71639C25.2602 3.63732 24.6382 2.94676 24.6382 2.94676C24.1901 2.35108 23.9582 1.62889 23.9002 0.806537C26.13 0.279388 28.4548 0 30.8427 0C32.9566 0 35.023 0.216131 37.0104 0.637849Z" fill="#F09372"/>
<path d="M19.177 29.1671C18.4073 33.5952 16.8892 37.9599 15.3077 41.2335C14.0426 44.291 12.5349 47.1007 10.8006 49.689L9.36148 50.9383C8.37572 49.9315 7.46902 48.8561 6.63086 47.7174L7.69042 45.825C9.55653 41.1281 11.1801 35.4507 11.5491 33.01C11.934 30.8013 12.44 28.8192 13.2413 27.4328C13.5576 25.593 13.6367 23.5214 13.5312 21.2915C17.3372 21.1861 19.3826 22.2615 18.7711 25.1186C18.6551 26.4365 18.8027 27.7913 19.177 29.1671Z" fill="#F09372"/>
<path d="M54.0373 49.0248C53.294 49.9315 52.498 50.796 51.6493 51.6025L50.0257 49.6468C47.9962 46.4734 46.3515 43.3052 45.139 40.1476C44.4221 37.8756 43.6946 35.593 42.9724 33.2999C42.5191 31.708 42.1448 30.0211 41.8338 28.2551C41.8971 28.097 41.9603 27.9336 42.0288 27.7702C42.614 26.0991 42.8248 24.3332 42.6351 22.467C44.1058 21.845 45.6767 21.4286 47.5165 21.6394C47.7906 25.4613 48.1121 29.9789 48.4811 30.9225C48.8976 31.9768 51.1485 38.4186 51.217 39.0195C51.275 39.5361 52.9514 44.7707 54.0373 49.0248Z" fill="#F09372"/>
<path d="M41.9867 57.8598C38.7394 59.1618 35.2128 59.9104 31.5175 59.9895L30.9113 57.7702C31.1432 57.1112 31.1591 56.4049 30.9113 55.6405C30.6266 54.7707 30.3209 54.8761 30.0046 55.7038C29.8043 56.368 29.8201 57.0374 30.0046 57.7069L29.061 59.9473C25.4975 59.7417 22.1027 58.9088 18.9819 57.5646C19.2244 55.6194 19.3668 53.7322 19.3773 51.9136C19.314 47.8071 19.6303 44.6073 20.3631 42.3774C20.6055 42.7412 20.9798 43.0048 21.507 43.1524C22.867 43.5424 23.3994 44.5071 23.3889 45.8461C23.7315 49.3094 25.6293 51.7501 28.8343 53.321C30.4896 53.7217 31.8707 53.7217 32.9092 53.1945C35.624 52.2667 37.4848 48.9088 38.6498 43.5899C39.6251 43.2578 40.4105 42.7834 40.7953 42.0032C41.3699 45.8724 41.5808 50.9383 41.6546 52.1719C41.7073 53.0364 41.8654 55.7986 41.9867 57.8598Z" fill="#7F6F5D"/>
<path d="M47.6482 21.65C47.606 21.6447 47.5586 21.6394 47.5164 21.6394C45.6767 21.4286 44.1058 21.845 42.635 22.4671C42.8248 24.3332 42.614 26.0991 42.0288 27.7702C41.9603 27.9336 41.897 28.097 41.8338 28.2551C40.1258 32.6199 39.9729 36.6157 41.0272 40.3374C41.1116 41.0121 41.022 41.5551 40.7953 41.9979C40.4105 42.7833 39.625 43.2578 38.6498 43.5899C37.4848 48.9088 35.624 52.2667 32.9092 53.1945C31.8707 53.7217 30.4895 53.7217 28.8343 53.321C25.6292 51.7501 23.7315 49.3094 23.3889 45.8461C23.3994 44.5071 22.867 43.5424 21.5069 43.1523C20.9798 43.0047 20.6055 42.7412 20.363 42.3774C20.0204 41.8661 19.9308 41.1597 20.0257 40.3163C21.0641 37.8756 21.4964 35.2504 20.2787 32.1297C19.8095 31.1281 19.4352 30.1423 19.1769 29.1671C18.8027 27.7912 18.6551 26.4365 18.771 25.1186C19.3825 22.2615 17.3372 21.1861 13.5312 21.2915C13.4732 21.2915 13.4099 21.2915 13.3467 21.2968C12.5771 17.1323 13.2465 13.806 16.6255 12.0664C19.567 11.65 22.3873 10.9805 25.081 10.0422C25.334 9.90511 25.7241 9.65208 25.9982 9.20928C26.4147 8.52926 26.2618 7.88613 26.3198 6.48392V6.43121L34.7331 6.64207C34.7331 6.91091 34.7384 7.19557 34.7436 7.49605C34.77 8.88244 34.7963 9.0195 34.8543 9.17765C35.3393 10.4902 37.3161 10.564 39.9413 11.2757C42.9144 12.0822 45.9666 12.7148 46.9998 15.0553C47.9329 17.1639 48.1912 19.3569 47.6482 21.65Z" fill="#FFD05C" stroke="#231F20" stroke-width="0.5" stroke-miterlimit="10"/>
</svg>
